<?xml version="1.0" standalone="no"?>
<!DOCTYPE svg PUBLIC "-//W3C//DTD SVG 20010904//EN"
 "http://www.w3.org/TR/2001/REC-SVG-20010904/DTD/svg10.dtd">
<svg version="1.0" xmlns="http://www.w3.org/2000/svg"
 width="500.000000pt" height="500.000000pt" viewBox="0 0 500.000000 500.000000"
 preserveAspectRatio="xMidYMid meet">

<g transform="translate(0.000000,500.000000) scale(0.100000,-0.100000)"
fill="#000000" stroke="none">
<path d="M240 4986 c-90 -24 -172 -95 -214 -185 l-21 -46 0 -2260 0 -2260 22
-47 c29 -64 95 -132 156 -163 l51 -25 2271 0 2271 0 51 25 c60 30 127 99 154
158 18 41 19 102 19 2313 l0 2270 -25 51 c-31 61 -99 127 -163 156 l-47 22
-2240 2 c-1748 1 -2250 -1 -2285 -11z m3662 -1454 c199 -53 311 -162 311 -303
0 -70 -29 -134 -84 -184 -22 -20 -43 -35 -47 -33 -4 2 -46 22 -93 46 -139 69
-264 86 -401 57 -92 -19 -148 -46 -202 -95 -104 -96 -146 -204 -153 -395 -8
-206 28 -330 127 -438 90 -98 216 -147 380 -147 111 0 179 16 292 67 l81 37
38 -42 c94 -107 91 -275 -7 -361 -98 -86 -209 -121 -417 -128 -300 -11 -523
49 -712 192 -77 58 -94 76 -162 168 -108 146 -161 318 -170 547 -11 275 40
474 167 660 127 185 348 324 570 360 41 6 82 13 90 15 8 2 83 2 165 0 110 -2
170 -8 227 -23z m-2068 8 c261 -38 437 -134 515 -280 65 -122 73 -292 19 -406
-32 -69 -108 -146 -177 -179 -33 -17 -60 -33 -60 -36 -1 -3 17 -11 38 -18 52
-15 150 -81 195 -131 94 -104 127 -255 92 -422 -56 -262 -282 -412 -677 -448
-160 -15 -377 -5 -539 25 -151 28 -223 54 -277 100 -76 64 -73 34 -73 873 0
813 -2 785 58 829 60 44 229 85 397 96 119 8 426 6 489 -3z"/>
<path d="M1428 3144 c-16 -5 -18 -23 -18 -186 l0 -181 158 5 c116 4 167 9 197
22 76 32 106 79 107 162 1 71 -32 123 -99 155 -43 21 -64 24 -188 26 -77 1
-148 -1 -157 -3z"/>
<path d="M1410 2227 l0 -186 48 -8 c26 -4 101 -8 167 -8 104 0 127 3 170 23
94 43 125 89 125 183 0 79 -23 119 -88 150 -43 21 -63 24 -234 27 l-188 4 0
-185z"/>
</g>
</svg>
